<svg width="10" height="11" viewBox="0 0 10 11" fill="none" xmlns="http://www.w3.org/2000/svg">
<rect width="10" height="11" fill="#1E1E1E"/>
<g id="&#208;&#160;&#208;&#181;&#208;&#180;&#208;&#176;&#208;&#186;&#209;&#130;&#208;&#184;&#209;&#128;&#208;&#190;&#208;&#178;&#208;&#176;&#209;&#130;&#209;&#140; &#209;&#128;&#208;&#181;&#208;&#183;&#209;&#142;&#208;&#188;&#208;&#181;" clip-path="url(#clip0_161_325)">
<rect width="320" height="611" transform="translate(-273 -101)" fill="white"/>
<rect width="320" height="611" transform="translate(-273 -101)" fill="#F5A100" fill-opacity="0.15"/>
<g id="Rectangle 37" filter="url(#filter0_d_161_325)">
<path d="M-246 6.00002C-246 -2.28426 -239.284 -9 -231 -9L5.99997 -9.00005C14.2842 -9.00005 21 -2.28431 21 5.99997C21 14.2843 14.2842 21 5.99997 21L-231 21C-239.284 21 -246 14.2843 -246 6.00002Z" fill="white"/>
<path d="M-246 6.00002C-246 -2.28426 -239.284 -9 -231 -9L5.99997 -9.00005C14.2842 -9.00005 21 -2.28431 21 5.99997C21 14.2843 14.2842 21 5.99997 21L-231 21C-239.284 21 -246 14.2843 -246 6.00002Z" fill="url(#paint0_linear_161_325)" fill-opacity="0.15"/>
</g>
<path id="Vector" d="M8.92857 4.8125H8.39286V3.26562C8.39286 1.46523 6.87054 0 5 0C3.12946 0 1.60714 1.46523 1.60714 3.26562V4.8125H1.07143C0.479911 4.8125 0 5.27441 0 5.84375V9.96875C0 10.5381 0.479911 11 1.07143 11H8.92857C9.52009 11 10 10.5381 10 9.96875V5.84375C10 5.27441 9.52009 4.8125 8.92857 4.8125ZM6.60714 4.8125H3.39286V3.26562C3.39286 2.4127 4.11384 1.71875 5 1.71875C5.88616 1.71875 6.60714 2.4127 6.60714 3.26562V4.8125Z" fill="#808080"/>
</g>
<defs>
<filter id="filter0_d_161_325" x="-256" y="-19" width="287" height="50" filterUnits="userSpaceOnUse" color-interpolation-filters="sRGB">
<feFlood flood-opacity="0" result="BackgroundImageFix"/>
<feColorMatrix in="SourceAlpha" type="matrix" values="0 0 0 0 0 0 0 0 0 0 0 0 0 0 0 0 0 0 127 0" result="hardAlpha"/>
<feOffset/>
<feGaussianBlur stdDeviation="5"/>
<feComposite in2="hardAlpha" operator="out"/>
<feColorMatrix type="matrix" values="0 0 0 0 0.960784 0 0 0 0 0.631373 0 0 0 0 0 0 0 0 0.25 0"/>
<feBlend mode="normal" in2="BackgroundImageFix" result="effect1_dropShadow_161_325"/>
<feBlend mode="normal" in="SourceGraphic" in2="effect1_dropShadow_161_325" result="shape"/>
</filter>
<linearGradient id="paint0_linear_161_325" x1="-112.5" y1="-9.00002" x2="-112.5" y2="21" gradientUnits="userSpaceOnUse">
<stop stop-color="#F5A100" stop-opacity="0"/>
<stop offset="1" stop-color="#F5A100"/>
</linearGradient>
<clipPath id="clip0_161_325">
<rect width="320" height="611" fill="white" transform="translate(-273 -101)"/>
</clipPath>
</defs>
</svg>
