<svg width="41" height="36" viewBox="0 0 41 36" fill="none" xmlns="http://www.w3.org/2000/svg">
<path d="M12.7113 27.5703C15.3875 28.259 16.8531 30.4324 16.3181 32.9192C13.721 32.6117 12.3898 30.3393 12.7113 27.5703Z" fill="white"/>
<path d="M23.5969 32.9448C23.0828 30.2503 24.5303 28.3248 27.2085 27.5825C27.4878 30.4937 26.1664 32.5182 23.5969 32.9448Z" fill="white"/>
<path d="M15.7316 34.2813C14.1746 36.3713 11.9128 36.5701 9.54297 34.7966C11.4687 32.7192 13.7422 32.4587 15.7316 34.2813Z" fill="white"/>
<path d="M24.1895 34.2895C25.9967 32.5472 28.3062 32.6209 30.3892 34.8084C29.6512 35.3036 28.8994 35.725 28.0464 35.9141C26.5773 36.2395 25.0154 35.5843 24.1895 34.2895Z" fill="white"/>
<path d="M3.11719 28.1139C5.55081 27.1899 7.68299 27.7676 8.782 30.2016C6.76276 31.3653 4.57376 30.6327 3.11719 28.1139Z" fill="white"/>
<path d="M31.1094 30.2054C32.2243 27.8474 34.3122 27.1378 36.7714 28.1273C35.8346 30.3811 33.0358 31.4183 31.1094 30.2054Z" fill="white"/>
<path d="M9.91587 29.2986C7.74002 27.8489 7.43236 25.508 8.56878 23.2192C10.7599 24.9972 11.1943 27.2972 9.91587 29.2986Z" fill="white"/>
<path d="M30.0072 29.3112C28.7024 27.2882 29.1813 25.018 31.3197 23.2222C32.5684 25.6167 32.0625 27.8719 30.0072 29.3112Z" fill="white"/>
<path d="M5.45413 22.9285C4.22416 21.05 4.74109 18.6689 6.66678 17.2788C7.79351 19.5356 7.43041 21.7722 5.45413 22.9285Z" fill="white"/>
<path d="M34.4641 22.9254C32.4331 21.7698 32.1587 19.516 33.2265 17.2749C35.2263 18.8199 35.6622 20.8652 34.4641 22.9254Z" fill="white"/>
<path d="M39.9116 19.333C39.5617 21.6955 38.2035 23.4847 35.8018 23.341C35.4851 21.4096 37.5494 19.3829 39.9116 19.333Z" fill="white"/>
<path d="M0 19.335C2.18347 19.4876 4.01145 20.6625 4.13757 23.3139C2.31374 23.7718 0.104634 21.6602 0 19.335Z" fill="white"/>
<path d="M35.7713 15.9088C33.7389 15.5872 32.3661 13.1882 32.9995 11.1064C35.3694 11.889 36.3339 13.7682 35.7713 15.9088Z" fill="white"/>
<path d="M4.1353 15.9088C3.58718 13.7779 4.51295 11.8927 6.91331 11.1094C7.33669 13.7295 6.18502 15.4881 4.1353 15.9088Z" fill="white"/>
<path d="M37.3212 15.842C36.5916 13.8399 37.6199 11.726 39.7521 10.814C40.549 12.7476 39.3543 15.2396 37.3212 15.842Z" fill="white"/>
<path d="M2.64995 15.8992C0.551713 15.2663 -0.291599 13.3171 0.194155 10.9106C2.14964 11.3745 3.41773 13.9499 2.64995 15.8992Z" fill="white"/>
<path d="M34.7743 8.71648C32.9442 9.35233 31.2306 8.32782 30.5078 6.18721C32.272 5.70921 34.2788 6.40686 34.7743 8.71648Z" fill="white"/>
<path d="M9.38692 6.15957C8.6039 8.5429 6.875 9.29193 5.15234 8.72234C5.27777 6.91307 7.48271 5.57882 9.38692 6.15957Z" fill="white"/>
<path d="M36.0801 8.10212C34.9048 6.50802 35.0718 4.6146 36.7543 2.96094C37.951 4.85361 37.6919 6.87583 36.0801 8.10212Z" fill="white"/>
<path d="M3.8337 8.09844C2.16717 6.84982 2.00225 4.80675 3.14837 2.95801C4.83846 4.61763 5.00269 6.47084 3.8337 8.09844Z" fill="white"/>
<path d="M33.1664 3.76483C31.335 3.6874 29.8493 1.90046 30.026 0.00927734C32.0155 0.320503 33.2142 1.7307 33.1664 3.76483Z" fill="white"/>
<path d="M6.75636 3.75779C6.49928 2.02297 8.05979 0.145189 9.88085 0C9.876 1.96787 8.85044 3.57239 6.75636 3.75779Z" fill="white"/>
</svg>
