<svg width="30" height="24" viewBox="0 0 30 24" fill="none" xmlns="http://www.w3.org/2000/svg">
<path d="M20.4343 0.824871C19.7594 0.239025 19.0002 0 18.2596 0C17.1911 0 16.1693 0.501484 15.5132 1.18575L14.9977 1.7341L14.4774 1.19044C13.8353 0.515544 12.8089 0 11.7263 0C10.9905 0 10.2359 0.239025 9.55632 0.824871C7.90189 2.25902 7.81284 4.83674 9.29386 6.38806L14.3978 11.7357C14.7258 12.0825 15.2601 12.0825 15.5929 11.7357L20.6968 6.38806C22.1778 4.83674 22.0934 2.25902 20.4343 0.824871ZM19.6376 5.3476L14.9977 10.2125L10.3578 5.3476C9.57507 4.52742 9.40166 2.92923 10.5171 1.96844C10.9014 1.63568 11.3279 1.50445 11.7497 1.50445C12.4012 1.50445 13.0292 1.82784 13.4182 2.23559L14.9977 3.88533L16.5771 2.2309C16.9614 1.82784 17.5941 1.49977 18.2456 1.49977C18.6627 1.49977 19.0939 1.631 19.4735 1.96376C20.5937 2.93392 20.4202 4.52273 19.6376 5.3476ZM10.3109 11.6607C9.65474 10.7608 8.00969 10.189 6.81925 11.4779C6.08811 12.2653 6.07405 13.4838 6.70208 14.3509L8.04249 16.1928C8.34713 16.6099 7.73785 17.088 7.40509 16.6943L4.4993 13.2589V6.83331C4.4993 5.61475 3.5057 4.52273 2.28714 4.50398C1.0264 4.48055 0 5.49289 0 6.74895V14.7352C0 15.2461 0.17341 15.7429 0.492111 16.1412L5.50695 22.4074C5.76004 22.7261 5.92407 23.2276 5.98032 23.6729C6.00375 23.8603 6.16779 23.9963 6.35526 23.9963H7.10514C7.33011 23.9963 7.50352 23.8135 7.48008 23.5885C7.40509 22.8386 7.12857 22.0278 6.67864 21.4701L1.6638 15.2039C1.55601 15.0726 1.49977 14.9039 1.49977 14.7352V6.74895C1.49977 5.76472 2.99953 5.7366 2.99953 6.78175V13.7978L6.02718 17.4301C7.7566 19.5016 10.564 17.3035 9.34542 15.4429C9.33604 15.4288 9.32667 15.4195 9.32198 15.4054L7.88783 13.4276C7.66755 13.1229 7.69099 12.6449 8.05187 12.3824C8.37994 12.1434 8.8533 12.2043 9.1017 12.5465L11.0889 15.2835C11.6841 16.0756 12.0028 17.0364 12.0028 18.0019V23.626C12.0028 23.8322 12.1715 24.0009 12.3778 24.0009H13.1276C13.3339 24.0009 13.5026 23.8322 13.5026 23.626V18.0019C13.5026 16.7036 13.0808 15.4429 12.3028 14.4024L10.3109 11.6607ZM29.9953 6.74895C29.9953 5.49289 28.9689 4.48055 27.7082 4.4993C26.4896 4.51804 25.496 5.61006 25.496 6.82862V13.2542L22.5902 16.6896C22.2575 17.0833 21.6482 16.6099 21.9528 16.1881L23.2932 14.3462C23.9213 13.4791 23.9072 12.2559 23.1761 11.4732C21.9809 10.189 20.3359 10.7561 19.6844 11.656L17.6972 14.3931C16.9192 15.4335 16.4974 16.699 16.4974 17.9972V23.6213C16.4974 23.8275 16.6661 23.9963 16.8724 23.9963H17.6222C17.8285 23.9963 17.9972 23.8275 17.9972 23.6213V17.9972C17.9972 17.0317 18.3159 16.0709 18.9111 15.2789L20.8983 12.5418C21.1467 12.1997 21.6154 12.134 21.9481 12.3778C22.3137 12.6402 22.3371 13.1183 22.1122 13.4229L20.678 15.4007C20.6686 15.4148 20.6593 15.4242 20.6546 15.4382C19.4313 17.2989 22.2434 19.5016 23.9728 17.4254L27.0005 13.7932V6.77707C27.0005 5.73192 28.5002 5.76004 28.5002 6.74426V14.7305C28.5002 14.8992 28.444 15.068 28.3362 15.1992L23.3214 21.4654C22.8761 22.0231 22.5949 22.8339 22.5199 23.5838C22.4965 23.8088 22.6699 23.9916 22.8949 23.9916H23.6447C23.8322 23.9916 23.9963 23.8556 24.0197 23.6682C24.0759 23.2182 24.2353 22.7214 24.493 22.4028L29.5079 16.1365C29.8266 15.7382 30 15.2414 30 14.7305L29.9953 6.74895Z" fill="#CE0063"/>
</svg>
