<svg width="10" height="10" viewBox="0 0 10 10" fill="none" xmlns="http://www.w3.org/2000/svg">
<path id="Vector" d="M7.3129 2.52581C6.68262 1.93565 5.86468 1.61214 4.99694 1.6129C3.43528 1.61427 2.0871 2.68504 1.71486 4.17036C1.68776 4.27849 1.59143 4.35484 1.47996 4.35484H0.324657C0.173488 4.35484 0.0586492 4.2176 0.0866129 4.06903C0.522843 1.7525 2.55671 0 5 0C6.33968 0 7.55627 0.526935 8.45393 1.38478L9.17399 0.664718C9.47881 0.359899 10 0.575786 10 1.00688V3.70968C10 3.97692 9.78337 4.19355 9.51613 4.19355H6.81333C6.38224 4.19355 6.16635 3.67236 6.47117 3.36752L7.3129 2.52581ZM0.483871 5.80645H3.18667C3.61776 5.80645 3.83365 6.32764 3.52883 6.63248L2.6871 7.47421C3.31738 8.06439 4.13538 8.3879 5.00315 8.38712C6.56399 8.38571 7.91272 7.31567 8.28514 5.82968C8.31224 5.72155 8.40857 5.6452 8.52004 5.6452H9.67536C9.82653 5.6452 9.94137 5.78244 9.91341 5.93101C9.47716 8.2475 7.44329 10 5 10C3.66032 10 2.44373 9.47306 1.54607 8.61522L0.826008 9.33528C0.52119 9.6401 0 9.42421 0 8.99312V6.29032C0 6.02308 0.216633 5.80645 0.483871 5.80645Z"/>
</svg>
